<mxfile host="app.diagrams.net" modified="2023-08-04T02:14:59.773Z" agent="Mozilla/5.0 (Macintosh; Intel Mac OS X 10_15_7) AppleWebKit/537.36 (KHTML, like Gecko) Chrome/115.0.0.0 Safari/537.36" etag="GfJau_v7GJe6Fe5x0dRG" version="21.6.6" type="github">
  <diagram name="第 1 页" id="FGJh3REmYH9sXVtc4aAs">
    <mxGraphModel dx="1621" dy="1053" grid="1" gridSize="10" guides="1" tooltips="1" connect="1" arrows="1" fold="1" page="1" pageScale="1" pageWidth="827" pageHeight="1169" math="0" shadow="0">
      <root>
        <mxCell id="0" />
        <mxCell id="1" parent="0" />
        <mxCell id="p7Hyz2d120XtVH2aevO3-9" value="业务系统" style="rounded=0;whiteSpace=wrap;html=1;" parent="1" vertex="1">
          <mxGeometry x="377" y="30" width="136" height="30" as="geometry" />
        </mxCell>
        <mxCell id="c4idsRlmBquMWVtExkIc-46" value="" style="edgeStyle=orthogonalEdgeStyle;rounded=0;orthogonalLoop=1;jettySize=auto;html=1;" parent="1" source="p7Hyz2d120XtVH2aevO3-10" target="p7Hyz2d120XtVH2aevO3-9" edge="1">
          <mxGeometry relative="1" as="geometry" />
        </mxCell>
        <mxCell id="p7Hyz2d120XtVH2aevO3-10" value="MQ" style="shape=cylinder3;whiteSpace=wrap;html=1;boundedLbl=1;backgroundOutline=1;size=15;" parent="1" vertex="1">
          <mxGeometry x="395" y="90" width="100" height="50" as="geometry" />
        </mxCell>
        <mxCell id="p7Hyz2d120XtVH2aevO3-11" value="" style="rounded=0;whiteSpace=wrap;html=1;" parent="1" vertex="1">
          <mxGeometry x="90" y="170" width="630" height="670" as="geometry" />
        </mxCell>
        <mxCell id="p7Hyz2d120XtVH2aevO3-12" value="监控系统" style="rounded=0;whiteSpace=wrap;html=1;" parent="1" vertex="1">
          <mxGeometry x="10" y="240" width="50" height="210" as="geometry" />
        </mxCell>
        <mxCell id="p7Hyz2d120XtVH2aevO3-18" value="" style="group" parent="1" vertex="1" connectable="0">
          <mxGeometry x="110" y="200" width="80" height="190" as="geometry" />
        </mxCell>
        <mxCell id="p7Hyz2d120XtVH2aevO3-14" value="" style="rounded=0;whiteSpace=wrap;html=1;" parent="p7Hyz2d120XtVH2aevO3-18" vertex="1">
          <mxGeometry width="80" height="190" as="geometry" />
        </mxCell>
        <mxCell id="p7Hyz2d120XtVH2aevO3-15" value="规则配置后台" style="text;strokeColor=none;align=center;fillColor=none;html=1;verticalAlign=middle;whiteSpace=wrap;rounded=0;" parent="p7Hyz2d120XtVH2aevO3-18" vertex="1">
          <mxGeometry y="10" width="60" height="30" as="geometry" />
        </mxCell>
        <mxCell id="p7Hyz2d120XtVH2aevO3-16" value="规则配置" style="rounded=0;whiteSpace=wrap;html=1;" parent="p7Hyz2d120XtVH2aevO3-18" vertex="1">
          <mxGeometry x="5" y="50" width="70" height="30" as="geometry" />
        </mxCell>
        <mxCell id="p7Hyz2d120XtVH2aevO3-17" value="版本管理" style="rounded=0;whiteSpace=wrap;html=1;" parent="p7Hyz2d120XtVH2aevO3-18" vertex="1">
          <mxGeometry x="5" y="90" width="70" height="30" as="geometry" />
        </mxCell>
        <mxCell id="p7Hyz2d120XtVH2aevO3-19" value="MyShard" style="shape=cylinder3;whiteSpace=wrap;html=1;boundedLbl=1;backgroundOutline=1;size=15;" parent="1" vertex="1">
          <mxGeometry x="100" y="450" width="100" height="50" as="geometry" />
        </mxCell>
        <mxCell id="p7Hyz2d120XtVH2aevO3-20" value="" style="edgeStyle=orthogonalEdgeStyle;rounded=0;orthogonalLoop=1;jettySize=auto;html=1;" parent="1" source="p7Hyz2d120XtVH2aevO3-14" target="p7Hyz2d120XtVH2aevO3-19" edge="1">
          <mxGeometry relative="1" as="geometry" />
        </mxCell>
        <mxCell id="p7Hyz2d120XtVH2aevO3-21" value="" style="rounded=0;whiteSpace=wrap;html=1;" parent="1" vertex="1">
          <mxGeometry x="260" y="190" width="440" height="630" as="geometry" />
        </mxCell>
        <mxCell id="p7Hyz2d120XtVH2aevO3-22" value="规则引擎" style="text;strokeColor=none;align=center;fillColor=none;html=1;verticalAlign=middle;whiteSpace=wrap;rounded=0;" parent="1" vertex="1">
          <mxGeometry x="270" y="200" width="60" height="30" as="geometry" />
        </mxCell>
        <mxCell id="c4idsRlmBquMWVtExkIc-9" style="edgeStyle=orthogonalEdgeStyle;rounded=0;orthogonalLoop=1;jettySize=auto;html=1;entryX=0;entryY=0.5;entryDx=0;entryDy=0;" parent="1" source="p7Hyz2d120XtVH2aevO3-23" target="c4idsRlmBquMWVtExkIc-1" edge="1">
          <mxGeometry relative="1" as="geometry" />
        </mxCell>
        <mxCell id="c4idsRlmBquMWVtExkIc-10" style="edgeStyle=orthogonalEdgeStyle;rounded=0;orthogonalLoop=1;jettySize=auto;html=1;entryX=0;entryY=0.5;entryDx=0;entryDy=0;" parent="1" source="p7Hyz2d120XtVH2aevO3-23" target="c4idsRlmBquMWVtExkIc-3" edge="1">
          <mxGeometry relative="1" as="geometry" />
        </mxCell>
        <mxCell id="c4idsRlmBquMWVtExkIc-11" style="edgeStyle=orthogonalEdgeStyle;rounded=0;orthogonalLoop=1;jettySize=auto;html=1;entryX=0;entryY=0.5;entryDx=0;entryDy=0;" parent="1" source="p7Hyz2d120XtVH2aevO3-23" target="c4idsRlmBquMWVtExkIc-6" edge="1">
          <mxGeometry relative="1" as="geometry" />
        </mxCell>
        <mxCell id="c4idsRlmBquMWVtExkIc-12" style="edgeStyle=orthogonalEdgeStyle;rounded=0;orthogonalLoop=1;jettySize=auto;html=1;entryX=0;entryY=0.5;entryDx=0;entryDy=0;" parent="1" source="p7Hyz2d120XtVH2aevO3-23" target="c4idsRlmBquMWVtExkIc-8" edge="1">
          <mxGeometry relative="1" as="geometry" />
        </mxCell>
        <mxCell id="c4idsRlmBquMWVtExkIc-13" style="edgeStyle=orthogonalEdgeStyle;rounded=0;orthogonalLoop=1;jettySize=auto;html=1;entryX=0;entryY=0.5;entryDx=0;entryDy=0;" parent="1" source="p7Hyz2d120XtVH2aevO3-23" target="c4idsRlmBquMWVtExkIc-7" edge="1">
          <mxGeometry relative="1" as="geometry" />
        </mxCell>
        <mxCell id="9pUtCe0UEfuhv0wGileg-1" style="edgeStyle=orthogonalEdgeStyle;rounded=0;orthogonalLoop=1;jettySize=auto;html=1;entryX=1;entryY=0.5;entryDx=0;entryDy=0;entryPerimeter=0;" edge="1" parent="1" source="p7Hyz2d120XtVH2aevO3-23" target="p7Hyz2d120XtVH2aevO3-19">
          <mxGeometry relative="1" as="geometry" />
        </mxCell>
        <mxCell id="p7Hyz2d120XtVH2aevO3-23" value="规则配置加载模块" style="rounded=0;whiteSpace=wrap;html=1;" parent="1" vertex="1">
          <mxGeometry x="274" y="320" width="56" height="240" as="geometry" />
        </mxCell>
        <mxCell id="c4idsRlmBquMWVtExkIc-45" style="edgeStyle=orthogonalEdgeStyle;rounded=0;orthogonalLoop=1;jettySize=auto;html=1;entryX=0.5;entryY=1;entryDx=0;entryDy=0;entryPerimeter=0;" parent="1" source="c4idsRlmBquMWVtExkIc-1" target="p7Hyz2d120XtVH2aevO3-10" edge="1">
          <mxGeometry relative="1" as="geometry" />
        </mxCell>
        <mxCell id="c4idsRlmBquMWVtExkIc-1" value="外部转发器" style="rounded=0;whiteSpace=wrap;html=1;" parent="1" vertex="1">
          <mxGeometry x="462" y="240" width="130" height="60" as="geometry" />
        </mxCell>
        <mxCell id="c4idsRlmBquMWVtExkIc-4" style="edgeStyle=orthogonalEdgeStyle;rounded=0;orthogonalLoop=1;jettySize=auto;html=1;entryX=0.5;entryY=1;entryDx=0;entryDy=0;" parent="1" source="c4idsRlmBquMWVtExkIc-3" target="c4idsRlmBquMWVtExkIc-1" edge="1">
          <mxGeometry relative="1" as="geometry" />
        </mxCell>
        <mxCell id="c4idsRlmBquMWVtExkIc-3" value="输出事件加工" style="rounded=0;whiteSpace=wrap;html=1;fillColor=#1ba1e2;fontColor=#ffffff;strokeColor=#006EAF;" parent="1" vertex="1">
          <mxGeometry x="460" y="340" width="134" height="40" as="geometry" />
        </mxCell>
        <mxCell id="9pUtCe0UEfuhv0wGileg-7" style="edgeStyle=orthogonalEdgeStyle;rounded=0;orthogonalLoop=1;jettySize=auto;html=1;entryX=0.5;entryY=1;entryDx=0;entryDy=0;" edge="1" parent="1" source="c4idsRlmBquMWVtExkIc-6" target="c4idsRlmBquMWVtExkIc-3">
          <mxGeometry relative="1" as="geometry" />
        </mxCell>
        <mxCell id="c4idsRlmBquMWVtExkIc-6" value="规则执行器" style="rounded=0;whiteSpace=wrap;html=1;fillColor=#1ba1e2;fontColor=#ffffff;strokeColor=#006EAF;" parent="1" vertex="1">
          <mxGeometry x="460" y="420" width="134" height="40" as="geometry" />
        </mxCell>
        <mxCell id="c4idsRlmBquMWVtExkIc-17" style="edgeStyle=orthogonalEdgeStyle;rounded=0;orthogonalLoop=1;jettySize=auto;html=1;entryX=1;entryY=0.5;entryDx=0;entryDy=0;entryPerimeter=0;" parent="1" source="c4idsRlmBquMWVtExkIc-7" target="c4idsRlmBquMWVtExkIc-15" edge="1">
          <mxGeometry relative="1" as="geometry" />
        </mxCell>
        <mxCell id="9pUtCe0UEfuhv0wGileg-5" style="edgeStyle=orthogonalEdgeStyle;rounded=0;orthogonalLoop=1;jettySize=auto;html=1;entryX=0.5;entryY=1;entryDx=0;entryDy=0;" edge="1" parent="1" source="c4idsRlmBquMWVtExkIc-7" target="c4idsRlmBquMWVtExkIc-8">
          <mxGeometry relative="1" as="geometry" />
        </mxCell>
        <mxCell id="c4idsRlmBquMWVtExkIc-7" value="时间窗模块" style="rounded=0;whiteSpace=wrap;html=1;fillColor=#1ba1e2;fontColor=#ffffff;strokeColor=#006EAF;" parent="1" vertex="1">
          <mxGeometry x="460" y="580" width="134" height="40" as="geometry" />
        </mxCell>
        <mxCell id="9pUtCe0UEfuhv0wGileg-6" style="edgeStyle=orthogonalEdgeStyle;rounded=0;orthogonalLoop=1;jettySize=auto;html=1;entryX=0.5;entryY=1;entryDx=0;entryDy=0;" edge="1" parent="1" source="c4idsRlmBquMWVtExkIc-8" target="c4idsRlmBquMWVtExkIc-6">
          <mxGeometry relative="1" as="geometry" />
        </mxCell>
        <mxCell id="c4idsRlmBquMWVtExkIc-8" value="场景路由" style="rounded=0;whiteSpace=wrap;html=1;fillColor=#1ba1e2;fontColor=#ffffff;strokeColor=#006EAF;" parent="1" vertex="1">
          <mxGeometry x="460" y="500" width="134" height="40" as="geometry" />
        </mxCell>
        <mxCell id="c4idsRlmBquMWVtExkIc-15" value="Codis" style="shape=cylinder3;whiteSpace=wrap;html=1;boundedLbl=1;backgroundOutline=1;size=15;" parent="1" vertex="1">
          <mxGeometry x="130" y="575" width="100" height="50" as="geometry" />
        </mxCell>
        <mxCell id="c4idsRlmBquMWVtExkIc-27" value="" style="group" parent="1" vertex="1" connectable="0">
          <mxGeometry x="370" y="710" width="120" height="60" as="geometry" />
        </mxCell>
        <mxCell id="c4idsRlmBquMWVtExkIc-14" value="" style="rounded=1;whiteSpace=wrap;html=1;" parent="c4idsRlmBquMWVtExkIc-27" vertex="1">
          <mxGeometry width="120" height="60" as="geometry" />
        </mxCell>
        <mxCell id="c4idsRlmBquMWVtExkIc-18" value="同步事件处理器" style="text;strokeColor=none;align=center;fillColor=none;html=1;verticalAlign=middle;whiteSpace=wrap;rounded=0;" parent="c4idsRlmBquMWVtExkIc-27" vertex="1">
          <mxGeometry x="9" y="5" width="100" height="20" as="geometry" />
        </mxCell>
        <mxCell id="c4idsRlmBquMWVtExkIc-19" value="事件预处理" style="rounded=0;whiteSpace=wrap;html=1;" parent="c4idsRlmBquMWVtExkIc-27" vertex="1">
          <mxGeometry x="9" y="30" width="107" height="20" as="geometry" />
        </mxCell>
        <mxCell id="c4idsRlmBquMWVtExkIc-28" value="" style="group" parent="1" vertex="1" connectable="0">
          <mxGeometry x="560" y="710" width="120" height="60" as="geometry" />
        </mxCell>
        <mxCell id="c4idsRlmBquMWVtExkIc-20" value="" style="rounded=1;whiteSpace=wrap;html=1;" parent="c4idsRlmBquMWVtExkIc-28" vertex="1">
          <mxGeometry width="120" height="60" as="geometry" />
        </mxCell>
        <mxCell id="c4idsRlmBquMWVtExkIc-21" value="异步事件处理器" style="text;strokeColor=none;align=center;fillColor=none;html=1;verticalAlign=middle;whiteSpace=wrap;rounded=0;" parent="c4idsRlmBquMWVtExkIc-28" vertex="1">
          <mxGeometry x="9" y="5" width="100" height="20" as="geometry" />
        </mxCell>
        <mxCell id="c4idsRlmBquMWVtExkIc-22" value="事件异步处理" style="rounded=0;whiteSpace=wrap;html=1;" parent="c4idsRlmBquMWVtExkIc-28" vertex="1">
          <mxGeometry x="9" y="30" width="107" height="20" as="geometry" />
        </mxCell>
        <mxCell id="c4idsRlmBquMWVtExkIc-29" style="edgeStyle=orthogonalEdgeStyle;rounded=0;orthogonalLoop=1;jettySize=auto;html=1;entryX=0.5;entryY=1;entryDx=0;entryDy=0;" parent="1" source="c4idsRlmBquMWVtExkIc-14" target="c4idsRlmBquMWVtExkIc-7" edge="1">
          <mxGeometry relative="1" as="geometry" />
        </mxCell>
        <mxCell id="c4idsRlmBquMWVtExkIc-30" style="edgeStyle=orthogonalEdgeStyle;rounded=0;orthogonalLoop=1;jettySize=auto;html=1;entryX=0.5;entryY=1;entryDx=0;entryDy=0;" parent="1" source="c4idsRlmBquMWVtExkIc-20" target="c4idsRlmBquMWVtExkIc-7" edge="1">
          <mxGeometry relative="1" as="geometry" />
        </mxCell>
        <mxCell id="c4idsRlmBquMWVtExkIc-32" style="edgeStyle=orthogonalEdgeStyle;rounded=0;orthogonalLoop=1;jettySize=auto;html=1;entryX=0.5;entryY=1;entryDx=0;entryDy=0;" parent="1" source="c4idsRlmBquMWVtExkIc-31" target="p7Hyz2d120XtVH2aevO3-12" edge="1">
          <mxGeometry relative="1" as="geometry">
            <mxPoint x="30" y="480" as="targetPoint" />
          </mxGeometry>
        </mxCell>
        <mxCell id="c4idsRlmBquMWVtExkIc-31" value="告警模块" style="rounded=0;whiteSpace=wrap;html=1;" parent="1" vertex="1">
          <mxGeometry x="120" y="650" width="100" height="170" as="geometry" />
        </mxCell>
        <mxCell id="c4idsRlmBquMWVtExkIc-38" style="edgeStyle=orthogonalEdgeStyle;rounded=0;orthogonalLoop=1;jettySize=auto;html=1;entryX=0.5;entryY=1;entryDx=0;entryDy=0;" parent="1" source="c4idsRlmBquMWVtExkIc-35" target="c4idsRlmBquMWVtExkIc-14" edge="1">
          <mxGeometry relative="1" as="geometry">
            <Array as="points">
              <mxPoint x="340" y="860" />
              <mxPoint x="430" y="860" />
            </Array>
          </mxGeometry>
        </mxCell>
        <mxCell id="c4idsRlmBquMWVtExkIc-35" value="实时数据" style="shape=cylinder3;whiteSpace=wrap;html=1;boundedLbl=1;backgroundOutline=1;size=15;" parent="1" vertex="1">
          <mxGeometry x="300" y="880" width="80" height="50" as="geometry" />
        </mxCell>
        <mxCell id="c4idsRlmBquMWVtExkIc-40" style="edgeStyle=orthogonalEdgeStyle;rounded=0;orthogonalLoop=1;jettySize=auto;html=1;" parent="1" source="c4idsRlmBquMWVtExkIc-36" edge="1">
          <mxGeometry relative="1" as="geometry">
            <mxPoint x="430" y="770" as="targetPoint" />
            <Array as="points">
              <mxPoint x="530" y="860" />
              <mxPoint x="431" y="860" />
            </Array>
          </mxGeometry>
        </mxCell>
        <mxCell id="c4idsRlmBquMWVtExkIc-36" value="实时数据" style="shape=cylinder3;whiteSpace=wrap;html=1;boundedLbl=1;backgroundOutline=1;size=15;" parent="1" vertex="1">
          <mxGeometry x="490" y="880" width="80" height="50" as="geometry" />
        </mxCell>
        <mxCell id="c4idsRlmBquMWVtExkIc-39" style="edgeStyle=orthogonalEdgeStyle;rounded=0;orthogonalLoop=1;jettySize=auto;html=1;entryX=0.5;entryY=1;entryDx=0;entryDy=0;" parent="1" source="c4idsRlmBquMWVtExkIc-37" target="c4idsRlmBquMWVtExkIc-14" edge="1">
          <mxGeometry relative="1" as="geometry" />
        </mxCell>
        <mxCell id="c4idsRlmBquMWVtExkIc-37" value="业务请求" style="shape=cylinder3;whiteSpace=wrap;html=1;boundedLbl=1;backgroundOutline=1;size=15;" parent="1" vertex="1">
          <mxGeometry x="390" y="880" width="80" height="50" as="geometry" />
        </mxCell>
        <mxCell id="c4idsRlmBquMWVtExkIc-44" style="edgeStyle=orthogonalEdgeStyle;rounded=0;orthogonalLoop=1;jettySize=auto;html=1;entryX=1;entryY=0.5;entryDx=0;entryDy=0;" parent="1" source="c4idsRlmBquMWVtExkIc-41" target="c4idsRlmBquMWVtExkIc-6" edge="1">
          <mxGeometry relative="1" as="geometry" />
        </mxCell>
        <mxCell id="c4idsRlmBquMWVtExkIc-41" value="自定义函数" style="rounded=0;whiteSpace=wrap;html=1;" parent="1" vertex="1">
          <mxGeometry x="630" y="350" width="60" height="180" as="geometry" />
        </mxCell>
        <mxCell id="c4idsRlmBquMWVtExkIc-43" style="edgeStyle=orthogonalEdgeStyle;rounded=0;orthogonalLoop=1;jettySize=auto;html=1;entryX=1;entryY=0.5;entryDx=0;entryDy=0;" parent="1" source="c4idsRlmBquMWVtExkIc-42" target="c4idsRlmBquMWVtExkIc-41" edge="1">
          <mxGeometry relative="1" as="geometry" />
        </mxCell>
        <mxCell id="c4idsRlmBquMWVtExkIc-42" value="第三方服务" style="rounded=0;whiteSpace=wrap;html=1;" parent="1" vertex="1">
          <mxGeometry x="740" y="350" width="70" height="180" as="geometry" />
        </mxCell>
      </root>
    </mxGraphModel>
  </diagram>
</mxfile>
